<svg xmlns="http://www.w3.org/2000/svg" viewBox="0 0 1057.71 822.67"><defs><style>.cls-1{isolation:isolate;}.cls-2{fill:#fff;}.cls-3{fill:#bebebe;}.cls-4{fill:#898989;}.cls-5{fill:#767676;opacity:0.7;mix-blend-mode:multiply;}</style></defs><g class="cls-1"><g id="Layer_1" data-name="Layer 1"><g id="Shape_39_copy_5" data-name="Shape 39 copy 5"><rect class="cls-2" width="1057.71" height="822.67"/></g><g id="Shape_39_copy_4" data-name="Shape 39 copy 4"><rect class="cls-3" x="37.55" y="37.55" width="982.61" height="747.57"/></g><path class="cls-2" d="M629.65,938a12.32,12.32,0,0,0-12.28-12.29h-92V907.43H493.09v18.24h-10.8A12.31,12.31,0,0,0,470,938v81.91a12.31,12.31,0,0,0,12.27,12.29H617.37a12.32,12.32,0,0,0,12.28-12.29Z" transform="translate(-11.15 -548.67)"/><path class="cls-4" d="M549.84,1013.47a34.55,34.55,0,1,1,34.54-34.55A34.56,34.56,0,0,1,549.84,1013.47Z" transform="translate(-11.15 -548.67)"/><path class="cls-5" d="M550.28,959.78a20.47,20.47,0,1,0,20.47,20.48A20.47,20.47,0,0,0,550.28,959.78Z" transform="translate(-11.15 -548.67)"/></g></g></svg>