<svg id="Layer_1" data-name="Layer 1" xmlns="http://www.w3.org/2000/svg" viewBox="0 0 1080 840.01"><defs><style>.cls-1{fill:#fff;}.cls-2{fill:#bebebe;}.cls-3{fill:#525050;}</style></defs><g id="Shape_39_copy_5" data-name="Shape 39 copy 5"><rect class="cls-1" width="1080" height="840.01"/></g><g id="Shape_39_copy_4" data-name="Shape 39 copy 4"><rect class="cls-2" x="38.34" y="38.34" width="1003.32" height="763.32"/></g><path class="cls-1" d="M455.8,967.88c-17.26-25.44-40.28-39.46-64.81-39.46-24.87,0-48.11,14.34-65.43,40.37a3.82,3.82,0,0,0,0,4.27c17.26,25.45,40.28,39.46,64.81,39.46,24.87,0,48.11-14.33,65.43-40.36A3.84,3.84,0,0,0,455.8,967.88Z" transform="translate(0 -540)"/><path class="cls-2" d="M415.43,970.47a24.74,24.74,0,1,1-24.74-24.74A24.73,24.73,0,0,1,415.43,970.47Z" transform="translate(0 -540)"/><path class="cls-3" d="M401.8,970.47a11.11,11.11,0,1,1-11.11-11.11A11.1,11.1,0,0,1,401.8,970.47Z" transform="translate(0 -540)"/></svg>