<svg xmlns="http://www.w3.org/2000/svg" xmlns:xlink="http://www.w3.org/1999/xlink" viewBox="0 0 1280 490.07"><defs><style>.cls-1{isolation:isolate;}.cls-2{fill:url(#linear-gradient);}.cls-3{fill:#a4a4a4;}.cls-4{fill:#818181;fill-rule:evenodd;}.cls-5{fill:#d5d5d5;}.cls-6{fill:#132638;opacity:0.7;mix-blend-mode:multiply;}</style><linearGradient id="linear-gradient" x1="640" y1="490.07" x2="640" gradientUnits="userSpaceOnUse"><stop offset="0" stop-color="#ededed"/><stop offset="0.15" stop-color="#dedede"/><stop offset="0.44" stop-color="#b5b5b5"/><stop offset="0.73" stop-color="#868686"/><stop offset="0.87" stop-color="#6b6b6b"/><stop offset="1" stop-color="#4d4d4d"/></linearGradient></defs><g class="cls-1"><g id="Layer_1" data-name="Layer 1"><rect class="cls-2" width="1280" height="490.07"/><polygon class="cls-3" points="1279.33 356.85 1279.33 351.86 1275.51 351.86 1275.51 356.85 1274.26 356.85 1274.26 360.29 1271.69 360.29 1271.69 446.14 1269.64 446.14 1269.64 417.43 1265.17 417.43 1265.17 414.7 1262.45 414.7 1262.45 417.43 1259.7 417.43 1259.7 414.7 1256.99 414.7 1256.99 417.43 1253.92 417.43 1253.92 446.14 1251.26 446.14 1251.26 324.07 1243.49 324.07 1243.49 310.86 1232.85 310.86 1232.85 296.77 1224.06 296.77 1224.06 310.86 1214.02 310.86 1214.02 324.07 1205.33 324.07 1205.33 361.18 1192.23 368.71 1192.23 371.85 1189.98 371.85 1189.98 278.21 1179 278.21 1179 273.71 1168.47 273.71 1168.47 278.21 1158.95 278.21 1158.95 273.15 1151.88 273.15 1151.88 265.83 1145.41 265.83 1145.41 273.15 1143.29 273.15 1143.29 278.21 1138.93 278.21 1138.93 451.11 1135.45 451.11 1135.45 369.47 1127.87 369.47 1127.87 365.47 1123.25 365.47 1123.25 369.47 1118.58 369.47 1118.58 365.47 1113.97 365.47 1113.97 369.47 1108.77 369.47 1108.77 266.7 1092.25 266.7 1092.25 256.86 1086.45 256.86 1086.45 244.5 1076.48 244.5 1076.48 256.86 1070.66 256.86 1070.66 266.7 1054.92 266.7 1054.92 362.09 1042.37 362.09 1042.37 358.02 1032.92 358.02 1032.92 362.09 1022.24 362.09 1022.24 379.59 1003.89 379.59 1003.89 263.1 984.61 263.1 984.61 251.81 977.41 251.81 977.41 263.1 955.07 263.1 955.07 379.59 945.42 379.59 945.42 446.14 937.59 446.14 937.59 261.51 926.45 261.51 926.45 256.22 915.75 256.22 915.75 261.51 906.07 261.51 906.07 255.55 898.9 255.55 898.9 246.96 892.32 246.96 892.32 255.55 890.17 255.55 890.17 261.51 885.75 261.51 885.75 424.61 882.21 424.61 882.21 325.44 874.5 325.44 874.5 320.74 869.82 320.74 869.82 325.44 863.32 325.44 863.32 282.81 844.95 282.81 844.95 278.31 834.43 278.31 834.43 282.81 808.58 282.81 808.58 343.39 806 343.39 806 337.53 801.52 337.53 801.52 343.39 800.05 343.39 800.05 347.45 797.04 347.45 797.04 355.24 795.31 355.24 795.31 283.75 768.49 283.75 768.49 278.68 762.38 278.68 762.38 271.37 756.79 271.37 756.79 278.68 754.94 278.68 754.94 283.75 751.19 283.75 751.19 385.12 748.18 385.12 748.18 367.55 741.63 367.55 741.63 363.55 737.64 363.55 737.64 367.55 733.59 367.55 733.59 363.55 729.61 363.55 729.61 367.55 725.12 367.55 725.12 385.76 717.11 385.76 717.11 382.31 714.59 382.31 714.59 378.78 712.93 378.78 712.93 377.33 709.13 377.33 709.13 378.78 707.34 378.78 707.34 369.18 701.37 369.18 701.37 378.78 694.51 378.78 694.51 387.79 688.6 387.79 688.6 413.08 684.87 415.22 684.87 349.54 677.1 349.54 677.1 336.33 666.45 336.33 666.45 322.24 657.67 322.24 657.67 336.33 647.63 336.33 647.63 349.54 638.94 349.54 638.94 386.65 625.83 394.18 625.83 397.31 623.58 397.31 623.58 303.67 612.62 303.67 612.62 299.18 602.08 299.18 602.08 303.67 592.56 303.67 592.56 298.61 585.49 298.61 585.49 291.3 579.03 291.3 579.03 298.61 576.9 298.61 576.9 303.67 572.55 303.67 572.55 410.93 571.05 410.93 571.05 413.7 569.07 413.7 569.07 394.93 561.48 394.93 561.48 390.93 556.87 390.93 556.87 394.93 552.2 394.93 552.2 390.93 551.26 390.93 551.26 323.07 538.89 323.07 538.89 318.17 534.01 318.17 534.01 323.07 517.99 323.07 517.99 405.05 511.94 405.05 511.94 387.56 506.06 387.56 506.06 321.99 498.47 321.99 498.47 318.38 491.17 318.38 491.17 321.99 484.58 321.99 484.58 317.93 479.69 317.93 479.69 312.07 475.21 312.07 475.21 317.93 473.74 317.93 473.74 321.99 470.73 321.99 470.73 383.49 466.53 383.49 466.53 387.56 463.06 387.56 463.06 385.51 459.86 385.51 459.86 387.56 455.85 387.56 455.85 388.71 455.44 388.71 455.44 359.65 442.92 359.65 442.92 356.59 437.49 356.59 437.49 288.57 418.23 288.57 418.23 277.26 411.03 277.26 411.03 288.57 388.68 288.57 388.68 356.85 386.62 356.85 386.62 351.86 382.8 351.86 382.8 356.85 381.55 356.85 381.55 360.29 378.99 360.29 378.99 446.14 376.94 446.14 376.94 417.43 372.46 417.43 372.46 414.7 371.2 414.7 371.2 286.98 360.06 286.98 360.06 281.69 349.36 281.69 349.36 286.98 339.69 286.98 339.69 281.03 332.51 281.03 332.51 272.43 325.94 272.43 325.94 281.03 323.77 281.03 323.77 286.98 319.36 286.98 319.36 420.36 319.14 420.36 319.14 356.52 315.82 356.52 315.82 350.9 308.12 350.9 308.12 346.2 303.43 346.2 303.43 350.9 296.93 350.9 296.93 308.27 278.56 308.27 278.56 303.78 268.04 303.78 268.04 308.27 242.19 308.27 242.19 380.71 228.91 380.71 228.91 309.21 202.09 309.21 202.09 304.15 195.99 304.15 195.99 296.84 190.41 296.84 190.41 304.15 188.56 304.15 188.56 309.21 184.8 309.21 184.8 323.07 179.9 323.07 179.9 318.17 175.03 318.17 175.03 323.07 158.99 323.07 158.99 393.02 158.72 393.02 158.72 425.63 153.51 425.63 153.51 413.26 148.22 413.26 148.22 404.25 147.09 404.25 147.09 321.99 139.49 321.99 139.49 318.38 132.2 318.38 132.2 321.99 125.58 321.99 125.58 317.93 120.71 317.93 120.71 312.07 116.23 312.07 116.23 317.93 114.75 317.93 114.75 321.99 111.73 321.99 111.73 381.99 104.26 381.99 104.26 378.93 97.09 378.93 97.09 381.99 96.45 381.99 96.45 359.65 83.92 359.65 83.92 356.59 76.75 356.59 76.75 359.65 59.12 359.65 59.12 409.04 50.08 409.04 50.08 307.17 31.79 307.17 31.79 303.73 27.63 303.73 27.63 298.74 23.82 298.74 23.82 303.73 22.56 303.73 22.56 307.17 20 307.17 20 439.17 17.96 439.17 17.96 417.43 13.49 417.43 13.49 414.7 10.77 414.7 10.77 417.43 8 417.43 8 414.7 5.3 414.7 5.3 417.43 2.23 417.43 2.23 439.17 0 439.17 0 490.07 1279.78 490.07 1279.78 356.85 1279.33 356.85"/><path class="cls-4" d="M1158.22,1004.73v12.43H1136.6V1010h-3.69v-2.83h-3.28V1010h-3.33v-2.83H1123V1010h-5.4v28.55h-2.46V945.16h-3.09v-3.59h-1.51v-5.2H1106v5.2h-5v3.59h-6.77V942h-7.46v3.2h-7.81v66.5h-1.6v-2.23l-9.3-5.35V977.74h-6.17v-9.39h-7.13v-10h-6.23v10h-7.56v9.39h-5.83v30.87h-3.2v-2.84h-2.83v2.84h-2.87v-2.84h-2.82v2.84h-4.66v29.91h-2.14V949.09h-2.67V945.5h-1.31v-5.2h-4v5.2h-4.33v3.59H985.25v50.78h-9.42V948.42H957.48v-3.19H950v3.19H937V978.7h-4.63v-3.34H929v3.34h-5.49v70.44H921v-140H917.9V905h-1.53v-6.11H911.7V905h-5.1v4.23h-6.87v-3.76h-7.59v3.76h-7.92v129.33h-5.56v-21.36h-6.85V910.31h-16.7v-5.1H850v5.1H837.15v106.85h-13v-12.43h-3.39v-38h0l1.6-1.9h-1.62v-8.14h-1.34c-.66-17.53-6.73-29.8-26.67-39.28v-1.17h-.91V915a5.43,5.43,0,0,0,2.15-1.78h.33v-3.48h-3.41v-18.3h-1.14v.82h-.82V892l0-.63h-.41v-6h-.86l-.89-2.86-1.59-5.06h0v-1.07a1.45,1.45,0,0,0,.76-1.24,1.49,1.49,0,0,0-1.09-1.39l-.1-4.94h.67a.75.75,0,0,0,.65.35.8.8,0,0,0,.75-.51,1.24,1.24,0,0,0,0-.27,1.13,1.13,0,0,0,0-.25.8.8,0,0,0-.75-.53.79.79,0,0,0-.64.33h-.7l0-2.19h-.85l-.06,2.19H783a.77.77,0,0,0-.63-.33.78.78,0,0,0-.5.18.74.74,0,0,0-.3.6.76.76,0,0,0,.3.61.78.78,0,0,0,.5.17.76.76,0,0,0,.65-.35h.68l-.13,5a1.48,1.48,0,0,0-.93,1.33,1.41,1.41,0,0,0,.66,1.18v1.13h0l-1.38,5.07-.79,2.85h-1v6h-.88v1.15l-.74,0v-1.11h-.75v18.3h-2.78v3.48h.34a8.73,8.73,0,0,0,2.15,1.76v1.31h-.77v1.29c-19.74,9.46-25.76,21.69-26.41,39.16h-1.17v8.14h-1.42l1.32,1.9h.1V1010H743.7v28.55h-2.46V945.16h-3.1v-3.59h-1.5v-5.2H732v5.2h-5v3.59h-6.76V942h-7.47v3.2H705v66.5H694.09V815h-6.17v-9.39l-7.13,10h-6.23l-7.56-10V815h-5.53v219.27h-5.42V956.65h-4.68v-4.17h-4.15v4.17H643v-4.17h-4.15v4.17H632v83.5h-3.13V869.36H625v-5.27h-1.92v-7.63h-5.83v7.63h-6.36v5.27H582.93v74.46H569.56V851.91H556.2V834.36H553v1.17h-1.76v16.38h-8.89V833.64h-1.11v-31H539.6v31h-.51v1.16h-1.77v17.11H531V834.36h-3.23v1.17H526v16.38H512v60.87h-6.68v-4.9h-4.89v4.9h-8V1016.1h-3.69V867.5h-4.59v-6.19h-2.26v-9H475v9h-7.48v6.19H457.47V862H446.33v5.5H434.72v171h-8.15V969.2H416.52v-100H410V850.64h-6.81v-28h-5l-1-33.59-4,1.09-1.87-29.31-1.9,29.31L385,789l-1,33.59h-5v28h-6.8v18.52h-6.53v100H339.86V951h-3.41V803.53H324.5V787.85h-2.89v1H320v14.64h-8V787.19h-1v-7.75h-1.44v7.75h-.46v1h-1.58v15.29H302V787.85h-2.89v1H297.5v14.64H285V951h-3.54V969.2H269.79V865.68H254.71v-4.17h-4.8v4.17H238.65v105H225.74V844.47H213.81V828.79h-2.9v1h-1.58v14.64h-8V828.14h-1V800.46H199v27.68h-.45v1h-1.58v15.29h-5.65V828.79h-2.9v1H186.8v14.64H174.27V961.12h-4.79V950H155.84V911.36h-9.05V897.6H136.33V882.92h-9.15V897.6H116.09v13.76H108v127.16h-2.77v-29.91H102v-2.84H99.2v2.84H96.34v-2.84H93.5v2.84H88.85v29.91H86.71V949.09H84V945.5H81.46v-1.88h-4v1.88H74.42v3.59h-19v50.78H46V948.42H29.9v-3.19H22.42v3.19H7.08V978.7H-6.33v70.44H-8.85v-140H-22V905h-2.82v-2.79h-4.67V905h-3.8v4.23H-45.66v129.33h-5.56v-21.36h-6.85v-67h-4.84v-5H-68v5H-81.46v-5.11h-5.08v5.11h-6.19v67h-13.86v62.11h1280v-74.54ZM780,909.71h-.94V896.56c0-.2.11-.35.24-.35h.48c.12,0,.22.15.22.35Zm1.52-19.56h.69v1.26h-.69Zm.92,19.56H781V896.56a.35.35,0,0,1,.36-.35h.76a.36.36,0,0,1,.36.35Zm4-19.56h.69v1.26h-.69Zm1,19.56H785.9V896.56a.35.35,0,0,1,.35-.35H787a.35.35,0,0,1,.36.35Zm2,0h-.94V896.56c0-.2.09-.35.22-.35h.48c.13,0,.24.15.24.35Z" transform="translate(106.59 -589.2)"/><rect class="cls-5" x="18.33" y="368" width="5.02" height="4.98"/><rect class="cls-5" x="38.19" y="383.67" width="5.01" height="4.98"/><rect class="cls-5" x="28.43" y="408.29" width="5.02" height="4.98"/><rect class="cls-5" x="45.19" y="430.63" width="5.01" height="4.98"/><rect class="cls-5" x="39.86" y="461.14" width="5.01" height="4.98"/><rect class="cls-5" x="108.37" y="405.04" width="5.01" height="4.98"/><rect class="cls-5" x="142.11" y="371.01" width="5.02" height="4.98"/><rect class="cls-5" x="160.49" y="423.48" width="5.02" height="4.98"/><rect class="cls-5" x="180.67" y="450.23" width="5.02" height="4.99"/><rect class="cls-5" x="217.63" y="465.66" width="5.02" height="4.98"/><rect class="cls-5" x="236.37" y="432.16" width="5.02" height="4.98"/><rect class="cls-5" x="220.84" y="377.39" width="5.02" height="4.98"/><rect class="cls-5" x="434.56" y="418.53" width="5.02" height="4.97"/><rect class="cls-5" x="431.21" y="223.18" width="5.02" height="4.98"/><rect class="cls-5" x="422.29" y="259.7" width="5.01" height="4.98"/><rect class="cls-5" x="396.65" y="237.57" width="5.02" height="4.98"/><rect class="cls-5" x="399.43" y="321.13" width="5.02" height="4.98"/><rect class="cls-5" x="408.91" y="321.13" width="5.01" height="4.98"/><rect class="cls-5" x="244.4" y="326.35" width="5.02" height="4.98"/><rect class="cls-5" x="258.87" y="382.71" width="5.01" height="4.98"/><rect class="cls-5" x="328.36" y="410.5" width="5.02" height="4.98"/><rect class="cls-5" x="352.89" y="285.99" width="5.01" height="4.98"/><rect class="cls-5" x="367.11" y="338.28" width="5.01" height="4.98"/><rect class="cls-5" x="364.87" y="427.93" width="5.01" height="4.98"/><rect class="cls-5" x="398.88" y="391.41" width="5.02" height="4.98"/><rect class="cls-5" x="295.83" y="444.92" width="5.02" height="4.98"/><rect class="cls-5" x="301.35" y="367.46" width="5.01" height="4.98"/><rect class="cls-5" x="287.79" y="267.33" width="5.02" height="4.99"/><rect class="cls-5" x="305.46" y="293.92" width="5.02" height="4.98"/><rect class="cls-5" x="318.86" y="340.7" width="5.01" height="4.98"/><rect class="cls-5" x="399.23" y="466.34" width="5.02" height="4.98"/><rect class="cls-5" x="476.78" y="393.23" width="5.01" height="4.97"/><rect class="cls-5" x="481.09" y="297.54" width="5.01" height="4.98"/><rect class="cls-5" x="506.1" y="307.21" width="5.02" height="4.98"/><rect class="cls-5" x="819.86" y="402.03" width="5.02" height="4.98"/><rect class="cls-5" x="491.55" y="344.7" width="5.02" height="4.98"/><rect class="cls-5" x="578.85" y="300.92" width="5.02" height="4.98"/><rect class="cls-5" x="504.06" y="434.98" width="5.02" height="4.98"/><rect class="cls-5" x="550.43" y="293.68" width="5.02" height="4.98"/><rect class="cls-5" x="550.43" y="307.22" width="5.02" height="4.98"/><rect class="cls-5" x="579.99" y="389.61" width="5.02" height="4.98"/><rect class="cls-5" x="567.49" y="349.44" width="5.01" height="4.98"/><rect class="cls-5" x="553.17" y="409.92" width="5.02" height="4.98"/><rect class="cls-5" x="493.83" y="240.88" width="5.01" height="4.98"/><rect class="cls-5" x="141.03" y="472.03" width="5.02" height="4.98"/><rect class="cls-5" x="126.57" y="445.98" width="5.02" height="4.98"/><rect class="cls-5" x="701.88" y="423.48" width="5" height="4.98"/><rect class="cls-5" x="722.05" y="450.23" width="5.02" height="4.99"/><rect class="cls-5" x="759.01" y="465.66" width="5.02" height="4.98"/><rect class="cls-5" x="777.77" y="432.16" width="5.02" height="4.98"/><rect class="cls-5" x="772.65" y="238.87" width="5.02" height="4.98"/><rect class="cls-5" x="782.48" y="260" width="5.01" height="4.98"/><rect class="cls-5" x="772.78" y="312.46" width="5.02" height="4.99"/><rect class="cls-5" x="787.76" y="366.43" width="5.02" height="4.98"/><rect class="cls-5" x="949.55" y="332.13" width="5.02" height="4.98"/><rect class="cls-5" x="744.44" y="376.04" width="5.01" height="4.98"/><rect class="cls-5" x="999.61" y="397.76" width="5.02" height="4.97"/><rect class="cls-5" x="958.3" y="370.74" width="5.01" height="4.98"/><rect class="cls-5" x="889.63" y="296.94" width="2.44" height="2.42"/><rect class="cls-5" x="1017.1" y="333.1" width="5.02" height="4.98"/><rect class="cls-5" x="1018.08" y="440.69" width="5.02" height="4.98"/><rect class="cls-5" x="1035.1" y="397.27" width="5.02" height="4.99"/><rect class="cls-5" x="1048.22" y="363.97" width="5.02" height="4.98"/><rect class="cls-5" x="1073.01" y="383.28" width="5.02" height="4.98"/><rect class="cls-5" x="1073.01" y="443.1" width="5.02" height="4.98"/><rect class="cls-5" x="1097.31" y="420.43" width="5.02" height="4.98"/><rect class="cls-5" x="1097.31" y="366.39" width="5.02" height="4.98"/><rect class="cls-5" x="1130.85" y="426.7" width="5.01" height="4.98"/><rect class="cls-5" x="1163.9" y="394.86" width="5.02" height="4.98"/><rect class="cls-5" x="1150.78" y="419.46" width="5.02" height="4.98"/><rect class="cls-5" x="1229.03" y="435.87" width="5.02" height="4.98"/><rect class="cls-5" x="1268.4" y="459.99" width="5.01" height="4.98"/><rect class="cls-5" x="1200.84" y="366.87" width="5.02" height="4.98"/><rect class="cls-5" x="1189.66" y="425.74" width="5.02" height="4.98"/><rect class="cls-5" x="1149.32" y="470.12" width="5.02" height="4.98"/><rect class="cls-5" x="837.21" y="444.92" width="5.01" height="4.98"/><rect class="cls-5" x="837.25" y="378.33" width="5.01" height="4.99"/><rect class="cls-5" x="940.62" y="466.34" width="5.01" height="4.98"/><rect class="cls-5" x="721.43" y="393" width="5.01" height="4.98"/><rect class="cls-5" x="709.82" y="314.24" width="5.01" height="4.98"/><rect class="cls-5" x="600.89" y="445.98" width="5.02" height="4.98"/><rect class="cls-5" x="182.81" y="374.74" width="5.02" height="4.98"/><rect class="cls-5" x="176.12" y="374.74" width="5.02" height="4.98"/><rect class="cls-5" x="66.91" y="331.07" width="5.02" height="4.98"/><rect class="cls-5" x="81.02" y="353.59" width="5.02" height="4.98"/><rect class="cls-5" x="67.53" y="415.69" width="5.02" height="4.98"/><rect class="cls-5" x="84.08" y="446.13" width="5.02" height="4.97"/><rect class="cls-5" x="4.49" y="431.84" width="5.02" height="4.98"/><rect class="cls-5" x="5.31" y="464.58" width="5.02" height="4.98"/><rect class="cls-6" width="1280" height="490.07"/></g></g></svg>