<svg id="Layer_1" data-name="Layer 1" xmlns="http://www.w3.org/2000/svg" viewBox="0 0 1080.31 171.3"><defs><style>.cls-1{fill:#adadad;}.cls-2{fill:#f98561;}.cls-3{fill:#2190c1;}</style></defs><g id="Shape_46" data-name="Shape 46"><path class="cls-1" d="M85.49,874.35A85.65,85.65,0,1,0,171.16,960,85.66,85.66,0,0,0,85.49,874.35Z" transform="translate(0.15 -874.35)"/></g><g id="Shape_46_copy" data-name="Shape 46 copy"><path class="cls-1" d="M316.13,874.35A85.65,85.65,0,1,0,401.8,960,85.66,85.66,0,0,0,316.13,874.35Z" transform="translate(0.15 -874.35)"/></g><g id="Shape_46_copy_2" data-name="Shape 46 copy 2"><path class="cls-1" d="M546.77,874.35A85.65,85.65,0,1,0,632.45,960,85.66,85.66,0,0,0,546.77,874.35Z" transform="translate(0.15 -874.35)"/></g><path class="cls-2" d="M763.85,874.35A85.65,85.65,0,1,0,849.52,960,85.67,85.67,0,0,0,763.85,874.35Z" transform="translate(0.15 -874.35)"/><path class="cls-3" d="M763.83,914.31A45.73,45.73,0,1,0,809.55,960,45.75,45.75,0,0,0,763.83,914.31Z" transform="translate(0.15 -874.35)"/><g id="Shape_46_copy_4" data-name="Shape 46 copy 4"><path class="cls-1" d="M994.49,874.35A85.65,85.65,0,1,0,1080.15,960,85.66,85.66,0,0,0,994.49,874.35Z" transform="translate(0.15 -874.35)"/></g></svg>