<svg xmlns="http://www.w3.org/2000/svg" viewBox="0 0 1048.21 1048.21"><defs><style>.cls-1{isolation:isolate;}.cls-2{fill:#2190c1;}.cls-3{fill:#3789b8;opacity:0.7;mix-blend-mode:multiply;}.cls-4{fill:#fff;}.cls-5{fill:#8fcdef;}</style></defs><g class="cls-1"><g id="Layer_1" data-name="Layer 1"><g id="Shape_368_copy_2" data-name="Shape 368 copy 2"><circle class="cls-2" cx="524.11" cy="524.11" r="524.11"/></g><path class="cls-3" d="M776.08,1053.3s1.76-46.66,2.79-83.33L275.72,802.76,36.54,1105.59C99.66,1324.18,301.09,1484.11,540,1484.11a527.58,527.58,0,0,0,62.84-3.89L852.8,1152l-48.58-17.57Z" transform="translate(-15.89 -435.89)"/><g id="Shape_174" data-name="Shape 174"><path class="cls-4" d="M873.73,1111.11a5.14,5.14,0,0,0-5.15-5.12H811.73V810.3a22.67,22.67,0,0,0-22.64-22.63H298.65A22.68,22.68,0,0,0,276,810.3V1106H219.14a5.13,5.13,0,0,0-5.11,5.12s-.74,12.09,0,16c2.5,13.69,30.55,35,64.14,35H809.56c33.58,0,61.64-21.29,64.17-35C874.44,1123.2,873.73,1111.11,873.73,1111.11Z" transform="translate(-15.89 -435.89)"/></g><g id="Shape_175" data-name="Shape 175"><rect class="cls-5" x="308.49" y="392.18" width="439.78" height="277.91"/></g></g></g></svg>