<svg xmlns="http://www.w3.org/2000/svg" viewBox="0 0 1082.67 1082.67"><defs><style>.cls-1{isolation:isolate;}.cls-2{fill:#2190c1;}.cls-3{fill:#3789b8;opacity:0.7;mix-blend-mode:multiply;}.cls-4{fill:#fff;}.cls-5{fill:#06bfff;}.cls-6{fill:#8fcdef;}</style></defs><g class="cls-1"><g id="Layer_1" data-name="Layer 1"><g id="Shape_368_copy_13" data-name="Shape 368 copy 13"><circle class="cls-2" cx="541.33" cy="541.33" r="541.33"/></g><path class="cls-3" d="M329.21,841.42l-123.13-60L-1.1,950.33c0,3.22-.23,6.42-.23,9.67,0,226.48,139.14,420.39,336.56,501.14l400.54-406.06L711.44,865.75Z" transform="translate(1.33 -418.67)"/><path class="cls-3" d="M399.86,1482.9,714,1170l-40.41-48.63L335.55,1461.26A535.44,535.44,0,0,0,399.86,1482.9Z" transform="translate(1.33 -418.67)"/><g id="Shape_278" data-name="Shape 278"><path class="cls-4" d="M452.47,1099.44a43.45,43.45,0,1,0,43.3,43.44A43.39,43.39,0,0,0,452.47,1099.44Zm226.26,0a43.45,43.45,0,1,0,43.32,43.44A43.38,43.38,0,0,0,678.73,1099.44ZM819.05,840.21H345.51l-32.22-61.4H205.46c-12.7,0-22.43,18.37-22.43,31.15v8.67c0,12.76,9.73,21.58,22.43,21.58h70.32c-1.66,0-1.51,6.87.78,10.81L398.5,1051.13c4.5,7.66,15.51,10.15,24.42,10.15H711c8.91,0,19.23-2.45,23-10.55l94.29-199C832.14,843.63,827.94,840.21,819.05,840.21Z" transform="translate(1.33 -418.67)"/></g><path class="cls-5" d="M660.64,892.87a16.15,16.15,0,0,1,16.08-16.15h6.15A16.15,16.15,0,0,1,699,892.87v3.55a16.14,16.14,0,0,1-16.11,16.14h-6.15a16.14,16.14,0,0,1-16.08-16.14Z" transform="translate(1.33 -418.67)"/><path class="cls-5" d="M602,892.87a16.19,16.19,0,0,1,16.09-16.15h6.2a16.19,16.19,0,0,1,16.12,16.15v3.55a16.19,16.19,0,0,1-16.12,16.14h-6.2A16.19,16.19,0,0,1,602,896.42Z" transform="translate(1.33 -418.67)"/><path class="cls-5" d="M543.37,892.87a16.19,16.19,0,0,1,16.1-16.15h6.13a16.21,16.21,0,0,1,16.16,16.15v3.55a16.2,16.2,0,0,1-16.16,16.14h-6.13a16.18,16.18,0,0,1-16.1-16.14Z" transform="translate(1.33 -418.67)"/><path class="cls-5" d="M484.69,892.87a16.22,16.22,0,0,1,16.15-16.15H507a16.22,16.22,0,0,1,16.14,16.15v3.55A16.21,16.21,0,0,1,507,912.56h-6.14a16.21,16.21,0,0,1-16.15-16.14Z" transform="translate(1.33 -418.67)"/><path class="cls-5" d="M426.08,892.87a16.23,16.23,0,0,1,16.13-16.15h6.1a16.24,16.24,0,0,1,16.19,16.15v3.55a16.23,16.23,0,0,1-16.19,16.14h-6.1a16.22,16.22,0,0,1-16.13-16.14Z" transform="translate(1.33 -418.67)"/><path class="cls-5" d="M383.6,912.56a16.19,16.19,0,0,1-16.14-16.14v-3.55a16.2,16.2,0,0,1,16.14-16.15h6.14a16.18,16.18,0,0,1,16.07,16.15v3.55a16.17,16.17,0,0,1-16.07,16.14Z" transform="translate(1.33 -418.67)"/><path class="cls-5" d="M419.48,969.27h-6.14a16.2,16.2,0,0,1-16.15-16.12v-3.57a16.2,16.2,0,0,1,16.15-16.15h6.14a16.21,16.21,0,0,1,16.14,16.15v3.57A16.21,16.21,0,0,1,419.48,969.27Z" transform="translate(1.33 -418.67)"/><path class="cls-5" d="M464.5,1012.57a16.2,16.2,0,0,1-16.19,16.11h-6.1a16.19,16.19,0,0,1-16.13-16.11V1009a16.21,16.21,0,0,1,16.13-16.14h6.1A16.22,16.22,0,0,1,464.5,1009Z" transform="translate(1.33 -418.67)"/><path class="cls-5" d="M472,969.27a16.18,16.18,0,0,1-16.1-16.12v-3.57A16.18,16.18,0,0,1,472,933.43h6.13a16.17,16.17,0,0,1,16.13,16.15v3.57a16.17,16.17,0,0,1-16.13,16.12Z" transform="translate(1.33 -418.67)"/><path class="cls-5" d="M523.12,1012.57A16.18,16.18,0,0,1,507,1028.68h-6.14a16.19,16.19,0,0,1-16.15-16.11V1009a16.21,16.21,0,0,1,16.15-16.14H507A16.2,16.2,0,0,1,523.12,1009Z" transform="translate(1.33 -418.67)"/><path class="cls-5" d="M530.62,969.27a16.16,16.16,0,0,1-16.13-16.12v-3.57a16.16,16.16,0,0,1,16.13-16.15h6.11a16.15,16.15,0,0,1,16.12,16.15v3.57a16.15,16.15,0,0,1-16.12,16.12Z" transform="translate(1.33 -418.67)"/><path class="cls-5" d="M581.76,1012.57a16.18,16.18,0,0,1-16.16,16.11h-6.13a16.16,16.16,0,0,1-16.1-16.11V1009a16.18,16.18,0,0,1,16.1-16.14h6.13A16.19,16.19,0,0,1,581.76,1009Z" transform="translate(1.33 -418.67)"/><path class="cls-5" d="M589.2,969.27a16.19,16.19,0,0,1-16.13-16.12v-3.57a16.19,16.19,0,0,1,16.13-16.15h6.17a16.18,16.18,0,0,1,16.12,16.15v3.57a16.18,16.18,0,0,1-16.12,16.12Z" transform="translate(1.33 -418.67)"/><path class="cls-5" d="M640.41,1012.57a16.16,16.16,0,0,1-16.12,16.11h-6.2A16.16,16.16,0,0,1,602,1012.57V1009a16.18,16.18,0,0,1,16.09-16.14h6.2A16.18,16.18,0,0,1,640.41,1009Z" transform="translate(1.33 -418.67)"/><path class="cls-5" d="M647.88,969.27a16.18,16.18,0,0,1-16.14-16.12v-3.57a16.18,16.18,0,0,1,16.14-16.15H654a16.18,16.18,0,0,1,16.13,16.15v3.57A16.18,16.18,0,0,1,654,969.27Z" transform="translate(1.33 -418.67)"/><path class="cls-5" d="M699,1012.57a16.12,16.12,0,0,1-16.11,16.11h-6.15a16.11,16.11,0,0,1-16.08-16.11V1009a16.13,16.13,0,0,1,16.08-16.14h6.15A16.14,16.14,0,0,1,699,1009Z" transform="translate(1.33 -418.67)"/><path class="cls-5" d="M728.72,953.15a16.13,16.13,0,0,1-16.07,16.12h-6.11a16.2,16.2,0,0,1-16.18-16.12v-3.57a16.2,16.2,0,0,1,16.18-16.15h6.11a16.13,16.13,0,0,1,16.07,16.15Z" transform="translate(1.33 -418.67)"/><path class="cls-5" d="M757.65,896.42a16.19,16.19,0,0,1-16.13,16.14H735.4a16.19,16.19,0,0,1-16.16-16.14v-3.55a16.2,16.2,0,0,1,16.16-16.15h6.12a16.2,16.2,0,0,1,16.13,16.15Z" transform="translate(1.33 -418.67)"/><g id="Shape_280" data-name="Shape 280"><ellipse class="cls-4" cx="800.38" cy="416.99" rx="100.09" ry="100.31"/></g><g id="Shape_280_copy" data-name="Shape 280 copy"><path class="cls-6" d="M799.05,760.42a75.23,75.23,0,1,0,75.07,75.24A75.16,75.16,0,0,0,799.05,760.42Z" transform="translate(1.33 -418.67)"/></g><g id="Shape_279" data-name="Shape 279"><path class="cls-4" d="M796.42,792.15c-13.12,0-24.52,7.77-24.52,21.4v15.54c0,12.51,9.78,19.45,19.61,19.45,5.94,0,4.91-2.65,17.19-7.54v15.58c0,8.12-7.78,10.45-12.53,10.45-4.23,0-12-2.33-12-8.39v-6.16H771.9v5.3c0,13.62,11.17,21.38,24.27,21.38,13.85,0,24.8-7.76,24.8-22.09V813.55C821,799.92,809.53,792.15,796.42,792.15ZM808.7,828c0,6.07-8,8.37-12.28,8.37s-12.27-2.3-12.27-8.37V812.68c0-6,8-8.24,12.27-8.24s12.28,2.19,12.28,8.24Z" transform="translate(1.33 -418.67)"/></g></g></g></svg>