<svg xmlns="http://www.w3.org/2000/svg" viewBox="0 0 1062.67 1062.67"><defs><style>.cls-1{isolation:isolate;}.cls-2{fill:#2190c1;}.cls-3{fill:#3789b8;opacity:0.7;mix-blend-mode:multiply;}.cls-4{fill:#fff;}.cls-5{fill:#8fcdef;}</style></defs><g class="cls-1"><g id="Layer_1" data-name="Layer 1"><g id="Shape_368_copy_13" data-name="Shape 368 copy 13"><circle class="cls-2" cx="531.33" cy="531.33" r="531.33"/></g><path class="cls-3" d="M377.65,1466l357.57-295.79-91.05-25.92L437.38,1018.61c45.89-30.6,97.3-65.83,99.53-68.08,4.05-4,57.9-195.7,57.9-195.7L554.83,653s-290,257-295.34,257c-.16,0-.22.16-.18.43L229,892,24.58,1089.25C69.18,1267.66,203.92,1410.26,377.65,1466Z" transform="translate(-8.67 -428.67)"/><g id="Shape_286" data-name="Shape 286"><path class="cls-4" d="M750.62,1018.45c66.15-13.64,43.2-72,21.93-81.51-16.93-7.56-36.51-7.17-23-12.56,10.43-4.15,33.81-11.66,33.81-37,0-11.51-3.7-19.85-8.65-24.53-9.4-8.91-23.67-11.57-27-11.57H654.33c-5.76,0-15.06-2.78-16.07-8.48C635,824.65,631,805.51,648.35,771c6.32-12.54,5.64-41.3-2.53-72.43-6.71-25.44-20.85-51.64-39.37-70.75-3.65-2.8-26.29-20.75-50.36,7.08v74.63c0,.7,3.85,1.32,3.72,1.94-.56,5.07.31,29.43-9.17,46-5.76,10.15-32,52.65-55.08,88.18-14.79,22.74-28.4,42.72-34.73,49.71-12.49,13.89-37.2,15.52-49.25,15.06v262.08l-.94.43c4.3-2.18,30.71,23.65,95.74,24.59,88.22,1.22,145.5-10.68,193.26-20.44,8-1.63,23.91-8,32-14.07,5.34-3.92,11.79-9,15.15-14.77a36.82,36.82,0,0,0,5.12-18.61c0-29.89-21.43-27.73-20.06-33.81,1-4.49,3.81-4.24,8-5.88,50.14-19.56,27-60.54,12.46-64.18C743.69,1023.45,744.77,1019.62,750.62,1018.45Z" transform="translate(-8.67 -428.67)"/></g><g id="Shape_305" data-name="Shape 305"><path class="cls-5" d="M395.46,875.44H272.13s-47.41-6.25-44.4,45.3S244.9,1173,244.9,1173s0,52.07,52.42,52.07H400.5s11.08.73,11.08-24.5V906.37S427.73,875.44,395.46,875.44Z" transform="translate(-8.67 -428.67)"/></g></g></g></svg>