<svg xmlns="http://www.w3.org/2000/svg" viewBox="0 0 1076 1076"><defs><style>.cls-1{isolation:isolate;}.cls-2{fill:#2190c1;}.cls-3{fill:#3789b8;opacity:0.7;mix-blend-mode:multiply;}.cls-4{fill:#fff;}.cls-5{fill:#8fcdef;}.cls-6{fill:#c7efff;}</style></defs><g class="cls-1"><g id="Layer_1" data-name="Layer 1"><circle class="cls-2" cx="538" cy="538" r="538"/><path class="cls-3" d="M18.42,1092.2C66.36,1281.93,215,1431.51,404.26,1480.69l366-413.24,10.15-47.91,7.26-64.14-385.09-239Z" transform="translate(-2 -422)"/><g id="Shape_283" data-name="Shape 283"><path class="cls-4" d="M352.24,1031.9,208.87,1175.62c-19.24,19.29-20.42,49.28-2.64,67.08l38.58,38.75c17.78,17.8,47.76,16.61,67-2.68l144-144.32a253.52,253.52,0,0,1-103.5-102.55Zm410.22-316c-98.7-98.95-258.73-98.95-357.41,0s-98.74,259.34,0,358.31,258.71,98.94,357.41,0S861.16,814.83,762.46,715.91Z" transform="translate(-2 -422)"/></g><g id="Shape_294" data-name="Shape 294"><path class="cls-5" d="M701.88,776.64c-65.14-65.29-171.12-65.29-236.28,0s-65.11,171.56,0,236.83,171.11,65.3,236.24,0S767,841.92,701.88,776.64Z" transform="translate(-2 -422)"/></g><g id="Shape_293" data-name="Shape 293"><path class="cls-6" d="M660,788.57c-3.64-2.05-8.46-4.67-14.62-8.17-23.28-13.1-46-19.74-67.55-19.74-45.3,0-69.53,29-70.54,30.19a6.49,6.49,0,0,0,0,8.19,6.4,6.4,0,0,0,8,1.65c16.18-8.47,35.78-12.75,58.25-12.75,37.38,0,72,11.69,85.06,16.06,4.54,1.53,5.62,1.89,7.09,1.89A6.56,6.56,0,0,0,672,801C673.33,795.93,671.3,794.79,660,788.57Z" transform="translate(-2 -422)"/></g></g></g></svg>